ffmpeg started on 2025-05-13 at 10:21:16
Report written to "D:\Convert\FFMetrics\reports\ssim_report-6.txt"
Log level: 32
Command line:
ffmpeg -hide_banner -nostdin -i "G:\\\xc0\xed\xe8\xec\xe5\\\xce\xed\xe3\xee\xe8\xed\xe3\xe8\\!_35_\xcb\xe5\xf2\xee_2024\\DreamCast-1\\\xd3 \xec\xee\xe5\xe9 \xe6\xe5\xed\xfb \xed\xe5\xf2 \xfd\xec\xee\xf6\xe8\xe9\\[DC] Boku no Tsuma wa Kanjou ga Nai - 08_Telegram_HEVC.mkv" -i "G:\\\xc0\xed\xe8\xec\xe5\\\xce\xed\xe3\xee\xe8\xed\xe3\xe8\\!_35_\xcb\xe5\xf2\xee_2024\\DreamCast-1\\\xd3 \xec\xee\xe5\xe9 \xe6\xe5\xed\xfb \xed\xe5\xf2 \xfd\xec\xee\xf6\xe8\xe9\\[DC] Boku no Tsuma wa Kanjou ga Nai - 08_Telegram.mp4" -lavfi "[0:v]settb=AVTB,setpts=PTS-STARTPTS,format=pix_fmts=yuv420p10,fps=24000/1001,scale=1920:1080:flags=bicubic[main];[1:v]settb=AVTB,setpts=PTS-STARTPTS,format=pix_fmts=yuv420p,fps=24000/1001,scale=1920:1080:flags=bicubic[ref];[main][ref]ssim=eof_action=endall:stats_file='D\\:/Convert/FFMetrics/logs/ssim_logfile-6.txt'" -f null -
Input #0, matroska,webm, from 'G:\Аниме\Онгоинги\!_35_Лето_2024\DreamCast-1\У моей жены нет эмоций\[DC] Boku no Tsuma wa Kanjou ga Nai - 08_Telegram_HEVC.mkv':
  Metadata:
    COMPATIBLE_BRANDS: isomiso2avc1mp41
    MAJOR_BRAND     : isom
    MINOR_VERSION   : 512
    ENCODER         : Lavf61.7.100
  Duration: 00:23:46.65, start: -0.021000, bitrate: 1079 kb/s
  Stream #0:0: Video: hevc (Main 10), yuv420p10le(tv, bt709, progressive), 1920x1080 [SAR 1:1 DAR 16:9], 23.98 fps, 23.98 tbr, 1k tbn (default)
      Metadata:
        HANDLER_NAME    : VideoHandler
        VENDOR_ID       : [0][0][0][0]
        ENCODER         : Lavc61.19.100 libx265
        BPS             : 882812
        DURATION        : 00:23:46.549708333
        NUMBER_OF_FRAMES: 34203
        NUMBER_OF_BYTES : 157421842
        _STATISTICS_WRITING_APP: mkvpropedit v66.0.0 ('Josie') 64-bit
        _STATISTICS_WRITING_DATE_UTC: 2025-05-11 13:11:50
        _STATISTICS_TAGS: BPS DURATION NUMBER_OF_FRAMES NUMBER_OF_BYTES
  Stream #0:1: Audio: aac (LC), 48000 Hz, stereo, fltp (default)
      Metadata:
        HANDLER_NAME    : SoundHandler
        VENDOR_ID       : [0][0][0][0]
        ENCODER         : Lavc61.19.100 aac
        BPS             : 192994
        DURATION        : 00:23:46.645000000
        NUMBER_OF_FRAMES: 66875
        NUMBER_OF_BYTES : 34416907
        _STATISTICS_WRITING_APP: mkvpropedit v66.0.0 ('Josie') 64-bit
        _STATISTICS_WRITING_DATE_UTC: 2025-05-11 13:11:50
        _STATISTICS_TAGS: BPS DURATION NUMBER_OF_FRAMES NUMBER_OF_BYTES
Input #1, mov,mp4,m4a,3gp,3g2,mj2, from 'G:\Аниме\Онгоинги\!_35_Лето_2024\DreamCast-1\У моей жены нет эмоций\[DC] Boku no Tsuma wa Kanjou ga Nai - 08_Telegram.mp4':
  Metadata:
    major_brand     : isom
    minor_version   : 512
    compatible_brands: isomiso2avc1mp41
    encoder         : Lavf60.16.100
  Duration: 00:23:46.62, start: 0.000000, bitrate: 4248 kb/s
  Stream #1:0[0x1](und): Video: h264 (High) (avc1 / 0x31637661), yuv420p(tv, bt709, progressive), 1920x1080 [SAR 1:1 DAR 16:9], 4100 kb/s, 23.98 fps, 23.98 tbr, 24k tbn (default)
      Metadata:
        handler_name    : VideoHandler
        vendor_id       : [0][0][0][0]
        encoder         : Lavc60.31.102 libx264
  Stream #1:1[0x2](und): Audio: aac (HE-AACv2) (mp4a / 0x6134706D), 48000 Hz, stereo, fltp, 144 kb/s (default)
      Metadata:
        handler_name    : SoundHandler
        vendor_id       : [0][0][0][0]
Stream mapping:
  Stream #0:0 (hevc) -> settb:default
  Stream #1:0 (h264) -> settb:default
  ssim:default -> Stream #0:0 (wrapped_avframe)
  Stream #0:1 -> #0:1 (aac (native) -> pcm_s16le (native))
Output #0, null, to 'pipe:':
  Metadata:
    COMPATIBLE_BRANDS: isomiso2avc1mp41
    MAJOR_BRAND     : isom
    MINOR_VERSION   : 512
    encoder         : Lavf61.7.100
  Stream #0:0: Video: wrapped_avframe, yuv420p10le(tv, bt709, progressive), 1920x1080 [SAR 1:1 DAR 16:9], q=2-31, 200 kb/s, 23.98 fps, 23.98 tbn
      Metadata:
        encoder         : Lavc61.19.100 wrapped_avframe
  Stream #0:1: Audio: pcm_s16le, 48000 Hz, stereo, s16, 1536 kb/s (default)
      Metadata:
        HANDLER_NAME    : SoundHandler
        VENDOR_ID       : [0][0][0][0]
        _STATISTICS_TAGS: BPS DURATION NUMBER_OF_FRAMES NUMBER_OF_BYTES
        BPS             : 192994
        DURATION        : 00:23:46.645000000
        NUMBER_OF_FRAMES: 66875
        NUMBER_OF_BYTES : 34416907
        _STATISTICS_WRITING_APP: mkvpropedit v66.0.0 ('Josie') 64-bit
        _STATISTICS_WRITING_DATE_UTC: 2025-05-11 13:11:50
        encoder         : Lavc61.19.100 pcm_s16le
frame=  167 fps=0.0 q=-0.0 size=N/A time=00:00:06.96 bitrate=N/A speed=13.6x    frame=  358 fps=346 q=-0.0 size=N/A time=00:00:14.93 bitrate=N/A speed=14.4x    frame=  603 fps=391 q=-0.0 size=N/A time=00:00:25.15 bitrate=N/A speed=16.3x    frame=  860 fps=416 q=-0.0 size=N/A time=00:00:35.86 bitrate=N/A speed=17.4x    frame= 1117 fps=432 q=-0.0 size=N/A time=00:00:46.58 bitrate=N/A speed=  18x    frame= 1364 fps=441 q=-0.0 size=N/A time=00:00:56.89 bitrate=N/A speed=18.4x    frame= 1618 fps=448 q=-0.0 size=N/A time=00:01:07.48 bitrate=N/A speed=18.7x    frame= 1854 fps=448 q=-0.0 size=N/A time=00:01:17.32 bitrate=N/A speed=18.7x    frame= 2107 fps=454 q=-0.0 size=N/A time=00:01:27.87 bitrate=N/A speed=18.9x    frame= 2371 fps=459 q=-0.0 size=N/A time=00:01:38.89 bitrate=N/A speed=19.2x    frame= 2626 fps=462 q=-0.0 size=N/A time=00:01:49.52 bitrate=N/A speed=19.3x    frame= 2851 fps=461 q=-0.0 size=N/A time=00:01:58.91 bitrate=N/A speed=19.2x    frame= 3096 fps=461 q=-0.0 size=N/A time=00:02:09.12 bitrate=N/A speed=19.2x    frame= 3362 fps=464 q=-0.0 size=N/A time=00:02:20.26 bitrate=N/A speed=19.4x    frame= 3607 fps=466 q=-0.0 size=N/A time=00:02:30.44 bitrate=N/A speed=19.4x    frame= 3858 fps=466 q=-0.0 size=N/A time=00:02:40.91 bitrate=N/A speed=19.5x    frame= 4105 fps=468 q=-0.0 size=N/A time=00:02:51.21 bitrate=N/A speed=19.5x    frame= 4366 fps=469 q=-0.0 size=N/A time=00:03:02.09 bitrate=N/A speed=19.6x    frame= 4599 fps=469 q=-0.0 size=N/A time=00:03:11.81 bitrate=N/A speed=19.5x    frame= 4813 fps=466 q=-0.0 size=N/A time=00:03:20.74 bitrate=N/A speed=19.4x    frame= 5005 fps=462 q=-0.0 size=N/A time=00:03:28.75 bitrate=N/A speed=19.3x    frame= 5233 fps=460 q=-0.0 size=N/A time=00:03:38.25 bitrate=N/A speed=19.2x    frame= 5441 fps=458 q=-0.0 size=N/A time=00:03:46.93 bitrate=N/A speed=19.1x    frame= 5605 fps=453 q=-0.0 size=N/A time=00:03:53.77 bitrate=N/A speed=18.9x    frame= 5797 fps=449 q=-0.0 size=N/A time=00:04:01.78 bitrate=N/A speed=18.7x    frame= 5939 fps=443 q=-0.0 size=N/A time=00:04:07.70 bitrate=N/A speed=18.5x    frame= 6154 fps=441 q=-0.0 size=N/A time=00:04:16.67 bitrate=N/A speed=18.4x    frame= 6348 fps=439 q=-0.0 size=N/A time=00:04:24.76 bitrate=N/A speed=18.3x    frame= 6546 fps=437 q=-0.0 size=N/A time=00:04:33.02 bitrate=N/A speed=18.2x    frame= 6739 fps=435 q=-0.0 size=N/A time=00:04:41.07 bitrate=N/A speed=18.1x    frame= 6974 fps=436 q=-0.0 size=N/A time=00:04:50.87 bitrate=N/A speed=18.2x    frame= 7243 fps=438 q=-0.0 size=N/A time=00:05:02.09 bitrate=N/A speed=18.3x    frame= 7499 fps=440 q=-0.0 size=N/A time=00:05:12.77 bitrate=N/A speed=18.4x    frame= 7721 fps=440 q=-0.0 size=N/A time=00:05:22.03 bitrate=N/A speed=18.3x    frame= 7926 fps=439 q=-0.0 size=N/A time=00:05:30.58 bitrate=N/A speed=18.3x    frame= 8181 fps=440 q=-0.0 size=N/A time=00:05:41.21 bitrate=N/A speed=18.4x    frame= 8430 fps=442 q=-0.0 size=N/A time=00:05:51.60 bitrate=N/A speed=18.4x    frame= 8705 fps=444 q=-0.0 size=N/A time=00:06:03.07 bitrate=N/A speed=18.5x    frame= 8982 fps=446 q=-0.0 size=N/A time=00:06:14.62 bitrate=N/A speed=18.6x    frame= 9226 fps=447 q=-0.0 size=N/A time=00:06:24.80 bitrate=N/A speed=18.6x    frame= 9493 fps=449 q=-0.0 size=N/A time=00:06:35.93 bitrate=N/A speed=18.7x    frame= 9762 fps=450 q=-0.0 size=N/A time=00:06:47.15 bitrate=N/A speed=18.8x    frame=10020 fps=452 q=-0.0 size=N/A time=00:06:57.91 bitrate=N/A speed=18.8x    frame=10166 fps=448 q=-0.0 size=N/A time=00:07:04.00 bitrate=N/A speed=18.7x    frame=10315 fps=444 q=-0.0 size=N/A time=00:07:10.22 bitrate=N/A speed=18.5x    frame=10522 fps=443 q=-0.0 size=N/A time=00:07:18.85 bitrate=N/A speed=18.5x    frame=10772 fps=444 q=-0.0 size=N/A time=00:07:29.28 bitrate=N/A speed=18.5x    frame=11014 fps=445 q=-0.0 size=N/A time=00:07:39.37 bitrate=N/A speed=18.5x    frame=11272 fps=446 q=-0.0 size=N/A time=00:07:50.13 bitrate=N/A speed=18.6x    frame=11397 fps=442 q=-0.0 size=N/A time=00:07:55.34 bitrate=N/A speed=18.4x    frame=11626 fps=442 q=-0.0 size=N/A time=00:08:04.90 bitrate=N/A speed=18.4x    frame=11887 fps=443 q=-0.0 size=N/A time=00:08:15.78 bitrate=N/A speed=18.5x    frame=12119 fps=443 q=-0.0 size=N/A time=00:08:25.46 bitrate=N/A speed=18.5x    frame=12374 fps=444 q=-0.0 size=N/A time=00:08:36.09 bitrate=N/A speed=18.5x    frame=12636 fps=445 q=-0.0 size=N/A time=00:08:47.02 bitrate=N/A speed=18.6x    frame=12871 fps=445 q=-0.0 size=N/A time=00:08:56.82 bitrate=N/A speed=18.6x    frame=13131 fps=447 q=-0.0 size=N/A time=00:09:07.67 bitrate=N/A speed=18.6x    frame=13395 fps=448 q=-0.0 size=N/A time=00:09:18.68 bitrate=N/A speed=18.7x    frame=13655 fps=449 q=-0.0 size=N/A time=00:09:29.56 bitrate=N/A speed=18.7x    frame=13893 fps=449 q=-0.0 size=N/A time=00:09:39.45 bitrate=N/A speed=18.7x    frame=14127 fps=449 q=-0.0 size=N/A time=00:09:49.21 bitrate=N/A speed=18.7x    frame=14320 fps=448 q=-0.0 size=N/A time=00:09:57.26 bitrate=N/A speed=18.7x    frame=14552 fps=448 q=-0.0 size=N/A time=00:10:06.93 bitrate=N/A speed=18.7x    frame=14794 fps=448 q=-0.0 size=N/A time=00:10:17.03 bitrate=N/A speed=18.7x    frame=15045 fps=449 q=-0.0 size=N/A time=00:10:27.50 bitrate=N/A speed=18.7x    frame=15302 fps=449 q=-0.0 size=N/A time=00:10:38.22 bitrate=N/A speed=18.7x    frame=15550 fps=450 q=-0.0 size=N/A time=00:10:48.56 bitrate=N/A speed=18.8x    frame=15802 fps=451 q=-0.0 size=N/A time=00:10:59.07 bitrate=N/A speed=18.8x    frame=16055 fps=451 q=-0.0 size=N/A time=00:11:09.62 bitrate=N/A speed=18.8x    frame=16327 fps=452 q=-0.0 size=N/A time=00:11:20.97 bitrate=N/A speed=18.9x    frame=16592 fps=453 q=-0.0 size=N/A time=00:11:32.02 bitrate=N/A speed=18.9x    frame=16831 fps=453 q=-0.0 size=N/A time=00:11:41.99 bitrate=N/A speed=18.9x    frame=17076 fps=453 q=-0.0 size=N/A time=00:11:52.21 bitrate=N/A speed=18.9x    frame=17333 fps=454 q=-0.0 size=N/A time=00:12:02.93 bitrate=N/A speed=18.9x    frame=17582 fps=454 q=-0.0 size=N/A time=00:12:13.31 bitrate=N/A speed=  19x    frame=17834 fps=455 q=-0.0 size=N/A time=00:12:23.82 bitrate=N/A speed=  19x    frame=18083 fps=455 q=-0.0 size=N/A time=00:12:34.25 bitrate=N/A speed=  19x    frame=18348 fps=456 q=-0.0 size=N/A time=00:12:45.26 bitrate=N/A speed=  19x    frame=18601 fps=456 q=-0.0 size=N/A time=00:12:55.81 bitrate=N/A speed=  19x    frame=18812 fps=456 q=-0.0 size=N/A time=00:13:04.61 bitrate=N/A speed=  19x    frame=19035 fps=456 q=-0.0 size=N/A time=00:13:13.91 bitrate=N/A speed=  19x    frame=19289 fps=456 q=-0.0 size=N/A time=00:13:24.51 bitrate=N/A speed=  19x    frame=19526 fps=456 q=-0.0 size=N/A time=00:13:34.39 bitrate=N/A speed=  19x    frame=19719 fps=455 q=-0.0 size=N/A time=00:13:42.44 bitrate=N/A speed=  19x    frame=19952 fps=455 q=-0.0 size=N/A time=00:13:52.16 bitrate=N/A speed=  19x    frame=20233 fps=456 q=-0.0 size=N/A time=00:14:03.88 bitrate=N/A speed=  19x    frame=20492 fps=457 q=-0.0 size=N/A time=00:14:14.68 bitrate=N/A speed=  19x    frame=20725 fps=457 q=-0.0 size=N/A time=00:14:24.40 bitrate=N/A speed=  19x    frame=20947 fps=456 q=-0.0 size=N/A time=00:14:33.66 bitrate=N/A speed=  19x    frame=21157 fps=456 q=-0.0 size=N/A time=00:14:42.42 bitrate=N/A speed=  19x    frame=21417 fps=456 q=-0.0 size=N/A time=00:14:53.26 bitrate=N/A speed=  19x    frame=21685 fps=457 q=-0.0 size=N/A time=00:15:04.44 bitrate=N/A speed=19.1x    frame=21941 fps=457 q=-0.0 size=N/A time=00:15:15.12 bitrate=N/A speed=19.1x    frame=22200 fps=458 q=-0.0 size=N/A time=00:15:25.92 bitrate=N/A speed=19.1x    frame=22414 fps=457 q=-0.0 size=N/A time=00:15:34.85 bitrate=N/A speed=19.1x    frame=22664 fps=458 q=-0.0 size=N/A time=00:15:45.27 bitrate=N/A speed=19.1x    frame=22918 fps=458 q=-0.0 size=N/A time=00:15:55.87 bitrate=N/A speed=19.1x    frame=23187 fps=459 q=-0.0 size=N/A time=00:16:07.09 bitrate=N/A speed=19.1x    frame=23441 fps=459 q=-0.0 size=N/A time=00:16:17.68 bitrate=N/A speed=19.1x    frame=23709 fps=460 q=-0.0 size=N/A time=00:16:28.86 bitrate=N/A speed=19.2x    frame=23954 fps=460 q=-0.0 size=N/A time=00:16:39.08 bitrate=N/A speed=19.2x    frame=24220 fps=460 q=-0.0 size=N/A time=00:16:50.17 bitrate=N/A speed=19.2x    frame=24480 fps=461 q=-0.0 size=N/A time=00:17:01.02 bitrate=N/A speed=19.2x    frame=24731 fps=461 q=-0.0 size=N/A time=00:17:11.48 bitrate=N/A speed=19.2x    frame=24998 fps=462 q=-0.0 size=N/A time=00:17:22.62 bitrate=N/A speed=19.2x    frame=25267 fps=462 q=-0.0 size=N/A time=00:17:33.84 bitrate=N/A speed=19.3x    frame=25521 fps=462 q=-0.0 size=N/A time=00:17:44.43 bitrate=N/A speed=19.3x    frame=25739 fps=462 q=-0.0 size=N/A time=00:17:53.53 bitrate=N/A speed=19.3x    frame=25965 fps=462 q=-0.0 size=N/A time=00:18:02.95 bitrate=N/A speed=19.3x    frame=26148 fps=461 q=-0.0 size=N/A time=00:18:10.58 bitrate=N/A speed=19.2x    frame=26379 fps=461 q=-0.0 size=N/A time=00:18:20.22 bitrate=N/A speed=19.2x    frame=26627 fps=461 q=-0.0 size=N/A time=00:18:30.56 bitrate=N/A speed=19.2x    frame=26876 fps=461 q=-0.0 size=N/A time=00:18:40.95 bitrate=N/A speed=19.2x    frame=27140 fps=461 q=-0.0 size=N/A time=00:18:51.96 bitrate=N/A speed=19.2x    frame=27397 fps=462 q=-0.0 size=N/A time=00:19:02.68 bitrate=N/A speed=19.3x    frame=27640 fps=462 q=-0.0 size=N/A time=00:19:12.81 bitrate=N/A speed=19.3x    frame=27909 fps=462 q=-0.0 size=N/A time=00:19:24.03 bitrate=N/A speed=19.3x    frame=28180 fps=463 q=-0.0 size=N/A time=00:19:35.34 bitrate=N/A speed=19.3x    frame=28437 fps=463 q=-0.0 size=N/A time=00:19:46.05 bitrate=N/A speed=19.3x    frame=28702 fps=464 q=-0.0 size=N/A time=00:19:57.11 bitrate=N/A speed=19.3x    frame=28951 fps=464 q=-0.0 size=N/A time=00:20:07.49 bitrate=N/A speed=19.3x    frame=29215 fps=464 q=-0.0 size=N/A time=00:20:18.50 bitrate=N/A speed=19.4x    frame=29467 fps=464 q=-0.0 size=N/A time=00:20:29.01 bitrate=N/A speed=19.4x    frame=29699 fps=464 q=-0.0 size=N/A time=00:20:38.69 bitrate=N/A speed=19.4x    frame=29938 fps=464 q=-0.0 size=N/A time=00:20:48.66 bitrate=N/A speed=19.4x    frame=30148 fps=464 q=-0.0 size=N/A time=00:20:57.42 bitrate=N/A speed=19.3x    frame=30360 fps=463 q=-0.0 size=N/A time=00:21:06.26 bitrate=N/A speed=19.3x    frame=30602 fps=463 q=-0.0 size=N/A time=00:21:16.35 bitrate=N/A speed=19.3x    frame=30851 fps=464 q=-0.0 size=N/A time=00:21:26.74 bitrate=N/A speed=19.3x    frame=31100 fps=464 q=-0.0 size=N/A time=00:21:37.12 bitrate=N/A speed=19.3x    frame=31357 fps=464 q=-0.0 size=N/A time=00:21:47.84 bitrate=N/A speed=19.4x    frame=31605 fps=464 q=-0.0 size=N/A time=00:21:58.19 bitrate=N/A speed=19.4x    frame=31814 fps=464 q=-0.0 size=N/A time=00:22:06.90 bitrate=N/A speed=19.3x    frame=32030 fps=463 q=-0.0 size=N/A time=00:22:15.91 bitrate=N/A speed=19.3x    frame=32201 fps=462 q=-0.0 size=N/A time=00:22:23.05 bitrate=N/A speed=19.3x    frame=32420 fps=462 q=-0.0 size=N/A time=00:22:32.18 bitrate=N/A speed=19.3x    frame=32613 fps=461 q=-0.0 size=N/A time=00:22:40.23 bitrate=N/A speed=19.2x    frame=32795 fps=461 q=-0.0 size=N/A time=00:22:47.82 bitrate=N/A speed=19.2x    frame=32984 fps=460 q=-0.0 size=N/A time=00:22:55.70 bitrate=N/A speed=19.2x    frame=33178 fps=459 q=-0.0 size=N/A time=00:23:03.79 bitrate=N/A speed=19.2x    frame=33367 fps=459 q=-0.0 size=N/A time=00:23:11.68 bitrate=N/A speed=19.1x    frame=33556 fps=458 q=-0.0 size=N/A time=00:23:19.56 bitrate=N/A speed=19.1x    frame=33766 fps=458 q=-0.0 size=N/A time=00:23:28.32 bitrate=N/A speed=19.1x    frame=33998 fps=458 q=-0.0 size=N/A time=00:23:37.99 bitrate=N/A speed=19.1x    frame=34139 fps=456 q=-0.0 size=N/A time=00:23:43.88 bitrate=N/A speed=  19x    [Parsed_ssim_10 @ 000001d611de1a40] SSIM Y:0.992374 (21.176853) U:0.995553 (23.519081) V:0.995682 (23.647619) All:0.993455 (21.840896)
[out#0/null @ 000001d6048f2d40] video:14697KiB audio:267500KiB subtitle:0KiB other streams:0KiB global headers:0KiB muxing overhead: unknown
frame=34203 fps=456 q=-0.0 Lsize=N/A time=00:23:46.55 bitrate=N/A speed=  19x    
